<?xml version="1.0" standalone="no"?>
<!DOCTYPE svg PUBLIC "-//W3C//DTD SVG 20010904//EN"
 "http://www.w3.org/TR/2001/REC-SVG-20010904/DTD/svg10.dtd">
<svg version="1.0" xmlns="http://www.w3.org/2000/svg"
 width="1080.000000pt" height="1080.000000pt" viewBox="0 0 1080.000000 1080.000000"
 preserveAspectRatio="xMidYMid meet">

<g transform="translate(0.000000,1080.000000) scale(0.100000,-0.100000)"
fill="#000000" stroke="none">
<path d="M2555 9490 c-567 -56 -1052 -472 -1203 -1031 -49 -183 -47 -35 -47
-3079 l0 -2855 23 -105 c30 -134 63 -232 118 -344 178 -361 504 -628 895 -734
183 -49 35 -47 3079 -47 l2855 0 105 23 c134 30 232 63 344 118 361 178 628
504 734 895 49 183 47 35 47 3079 l0 2855 -23 105 c-30 134 -63 232 -118 344
-177 357 -508 631 -888 733 -187 50 8 46 -3021 49 -1551 1 -2856 -2 -2900 -6z
m5815 -124 c235 -56 415 -146 586 -295 229 -198 380 -476 430 -791 13 -83 14
-459 12 -2935 -3 -2693 -5 -2844 -22 -2915 -56 -235 -146 -415 -295 -586 -198
-229 -476 -380 -791 -430 -83 -13 -459 -14 -2935 -12 -2693 3 -2844 5 -2915
22 -235 56 -415 146 -586 295 -229 198 -380 476 -430 791 -13 83 -14 459 -12
2935 3 2693 5 2844 22 2915 56 235 146 415 295 586 193 224 469 376 776 429
66 11 569 13 2935 11 2710 -1 2859 -2 2930 -20z"/>
<path d="M7280 8880 c-245 -22 -380 -87 -458 -220 l-27 -45 -3 -2015 -3 -2015
-213 420 c-221 437 -410 801 -526 1015 -61 112 -586 1112 -770 1465 -153 295
-430 805 -479 884 -135 218 -280 349 -471 425 -136 55 -171 58 -640 63 -239 3
-508 0 -596 -5 -152 -9 -166 -12 -227 -42 -121 -59 -222 -163 -285 -290 l-37
-75 -6 -1685 c-3 -927 -7 -2331 -7 -3120 l-2 -1435 29 -50 c36 -62 108 -131
166 -156 130 -57 366 -86 635 -76 368 14 550 80 622 225 l23 47 5 2155 c3
1185 8 2151 11 2145 4 -5 109 -210 234 -455 343 -673 360 -700 438 -700 39 0
93 27 118 59 17 20 20 36 16 74 -4 50 -6 54 -338 707 -197 387 -276 556 -421
895 -49 115 -99 225 -110 243 -39 64 -142 83 -197 37 -51 -44 -53 -63 -41
-397 6 -173 13 -1246 17 -2500 l6 -2198 -39 -16 c-153 -64 -659 -70 -834 -10
l-65 22 0 3049 0 3050 24 52 c27 61 88 121 160 157 l50 26 448 0 c246 0 504
-5 572 -10 118 -8 130 -11 208 -50 151 -75 231 -168 391 -460 190 -345 694
-1295 1283 -2420 315 -603 840 -1671 873 -1778 4 -13 26 -36 48 -53 73 -52
169 -35 203 37 16 34 16 69 5 558 -7 339 -10 1152 -8 2331 l3 1810 66 22 c164
55 670 56 815 2 l56 -21 -4 -3052 -3 -3051 -30 -53 c-36 -66 -123 -148 -173
-162 -23 -7 -211 -13 -507 -17 l-470 -5 -80 40 c-184 94 -274 204 -480 587
-59 110 -140 259 -180 330 -40 72 -158 292 -263 490 -264 498 -406 755 -434
787 -29 32 -65 43 -115 33 -48 -9 -103 -65 -103 -105 0 -37 66 -175 250 -525
84 -159 209 -398 278 -530 434 -832 530 -989 712 -1157 125 -116 240 -176 381
-199 50 -9 222 -13 539 -13 455 -1 467 0 536 21 91 29 174 85 257 172 92 98
124 168 138 306 14 136 24 4733 12 5611 l-8 581 -36 46 c-79 101 -157 144
-312 171 -101 18 -497 28 -627 16z"/>
<path d="M4945 5035 c-65 -32 -92 -113 -60 -175 26 -50 69 -73 126 -68 120 12
157 145 63 228 -39 34 -80 39 -129 15z"/>
</g>
</svg>
